<svg width="200" height="200" viewBox="0 0 200 200" xmlns="http://www.w3.org/2000/svg">
  <defs>
    <linearGradient id="bg" x1="0" y1="0" x2="1" y2="1">
      <stop offset="0%" stop-color="#E8E4F7" />
      <stop offset="100%" stop-color="#D9D3F0" />
    </linearGradient>
  </defs>
  <circle cx="100" cy="100" r="100" fill="url(#bg)" />
  <circle cx="100" cy="80" r="34" fill="#B9AEDE" />
  <path
    d="M40 176c0-38 27-62 60-62s60 24 60 62c0 3-2 4-4 4H44c-2 0-4-1-4-4z"
    fill="#B9AEDE"
  />
  <path
    d="M148 54l3 8 8 3-8 3-3 8-3-8-8-3 8-3z"
    fill="#FFFFFF"
    opacity="0.85"
  />
  <path
    d="M56 140l2.4 6.2 6.2 2.4-6.2 2.4-2.4 6.2-2.4-6.2-6.2-2.4 6.2-2.4z"
    fill="#FFFFFF"
    opacity="0.7"
  />
</svg>
